<?xml version="1.0" encoding="UTF-8"?>
<!DOCTYPE svg PUBLIC "-//W3C//DTD SVG 1.1//EN" "http://www.w3.org/Graphics/SVG/1.1/DTD/svg11.dtd">
<svg version="1.1" xmlns="http://www.w3.org/2000/svg" xmlns:xlink="http://www.w3.org/1999/xlink" x="0" y="0" width="494.855" height="548.359" viewBox="0, 0, 494.855, 548.359">
  <g id="Layer_1">
    <path d="M133.277,357.182 L82.438,369.682 C82.438,369.682 77.438,363.841 69.107,364.682 C60.777,365.521 63.277,393.841 79.107,398.841 C94.938,403.841 136.607,385.521 136.607,385.521" fill="#F8E7B9" id="path833"/>
    <path d="M133.277,357.182 L82.438,369.682 C82.438,369.682 77.438,363.841 69.107,364.682 C60.777,365.521 63.277,393.841 79.107,398.841 C94.938,403.841 136.607,385.521 136.607,385.521" fill-opacity="0" stroke="#3C2C1E" stroke-width="10" stroke-linecap="round" stroke-linejoin="round" id="path835"/>
    <path d="M183.716,478.021 L180.64,523.021 C180.64,523.021 165.279,533.841 168.355,539.682 C171.421,545.521 206.247,545.521 211.363,531.341 C216.49,517.182 221.607,476.341 221.607,476.341" fill="#F8E7B9" id="path837"/>
    <path d="M183.716,478.021 L180.64,523.021 C180.64,523.021 165.279,533.841 168.355,539.682 C171.421,545.521 206.247,545.521 211.363,531.341 C216.49,517.182 221.607,476.341 221.607,476.341" fill-opacity="0" stroke="#3C2C1E" stroke-width="10" stroke-linecap="round" stroke-linejoin="round" id="path839"/>
    <path d="M364.429,357.182 L415.259,369.682 C415.259,369.682 420.269,363.841 428.589,364.682 C436.929,365.521 434.429,393.841 418.589,398.841 C402.759,403.841 361.089,385.521 361.089,385.521" fill="#F8E7B9" id="path841"/>
    <path d="M364.429,357.182 L415.259,369.682 C415.259,369.682 420.269,363.841 428.589,364.682 C436.929,365.521 434.429,393.841 418.589,398.841 C402.759,403.841 361.089,385.521 361.089,385.521" fill-opacity="0" stroke="#3C2C1E" stroke-width="10" stroke-linecap="round" stroke-linejoin="round" id="path843"/>
    <path d="M313.98,478.021 L317.057,523.021 C317.057,523.021 332.417,533.841 329.351,539.682 C326.275,545.521 291.451,545.521 286.334,531.341 C281.208,517.182 276.089,476.341 276.089,476.341" fill="#F8E7B9" id="path845"/>
    <path d="M313.98,478.021 L317.057,523.021 C317.057,523.021 332.417,533.841 329.351,539.682 C326.275,545.521 291.451,545.521 286.334,531.341 C281.208,517.182 276.089,476.341 276.089,476.341" fill-opacity="0" stroke="#3C2C1E" stroke-width="10" stroke-linecap="round" stroke-linejoin="round" id="path847"/>
    <path d="M171.617,339.682 C171.617,339.682 126.617,347.182 126.617,352.182 C126.617,357.182 130.777,393.021 134.938,393.021 C139.117,393.021 170.777,383.841 170.777,383.841 C170.777,383.841 164.938,426.36 169.938,428.021 C174.938,429.682 333.277,430.521 334.117,425.521 C334.938,420.521 332.438,384.682 332.438,384.682 C332.438,384.682 346.617,399.682 351.617,398.841 C356.617,398.021 394.938,363.021 388.277,359.682 C381.617,356.341 344.117,336.341 344.117,336.341" fill="#6CB85C" id="path849"/>
    <path d="M171.617,339.682 C171.617,339.682 126.617,347.182 126.617,352.182 C126.617,357.182 130.777,393.021 134.938,393.021 C139.117,393.021 170.777,383.841 170.777,383.841 C170.777,383.841 164.938,426.36 169.938,428.021 C174.938,429.682 333.277,430.521 334.117,425.521 C334.938,420.521 332.438,384.682 332.438,384.682 C332.438,384.682 346.617,399.682 351.617,398.841 C356.617,398.021 394.938,363.021 388.277,359.682 C381.617,356.341 344.117,336.341 344.117,336.341" fill-opacity="0" stroke="#3C2C1E" stroke-width="10" stroke-linecap="round" stroke-linejoin="round" id="path851"/>
    <path d="M167.438,478.841 C179.107,478.841 234.107,479.682 236.607,478.841 C239.107,478.021 248.277,464.682 248.277,464.682 C248.277,464.682 259.107,482.182 264.107,482.182 C269.107,482.182 327.378,483.744 333.277,480.521 C342.447,475.521 329.938,333.021 329.938,333.021 L309.938,331.341 C309.938,331.341 313.277,403.841 309.938,403.841 C306.607,403.841 189.117,406.36 188.277,403.021 C187.438,399.682 189.107,332.182 189.107,332.182 C189.107,332.182 177.438,333.021 174.938,333.021 C172.438,333.021 155.777,478.841 167.438,478.841" fill="#EECC5A" id="path853"/>
    <path d="M167.438,478.841 C179.107,478.841 234.107,479.682 236.607,478.841 C239.107,478.021 248.277,464.682 248.277,464.682 C248.277,464.682 259.107,482.182 264.107,482.182 C269.107,482.182 327.378,483.744 333.277,480.521 C342.447,475.521 329.938,333.021 329.938,333.021 L309.938,331.341 C309.938,331.341 313.277,403.841 309.938,403.841 C306.607,403.841 189.117,406.36 188.277,403.021 C187.438,399.682 189.107,332.182 189.107,332.182 C189.107,332.182 177.438,333.021 174.938,333.021 C172.438,333.021 155.777,478.841 167.438,478.841 z" fill-opacity="0" stroke="#3C2C1E" stroke-width="10" stroke-linecap="round" stroke-linejoin="round" id="path855"/>
    <path d="M247.417,346.341 C219.058,345.364 108.688,349.33 58.14,311.576 C7.593,273.821 19.126,240.052 19.126,240.052 C-20.766,177.475 35.972,125.814 35.972,125.814 C42.183,58.275 99.81,60.248 99.81,60.248 C130.855,9.604 193.804,23.509 193.804,23.509 C193.804,23.509 233.648,-18.228 301.05,23.509 C301.05,23.509 364,9.604 395.035,60.248 C395.035,60.248 452.671,58.275 458.882,125.814 C458.882,125.814 515.621,177.475 475.729,240.052 C475.729,240.052 487.261,273.821 436.714,311.576 C386.177,349.33 275.796,345.364 247.417,346.341" fill="#F8E7B9" id="path857"/>
    <path d="M247.417,346.341 C219.058,345.364 108.688,349.33 58.14,311.576 C7.593,273.821 19.126,240.052 19.126,240.052 C-20.766,177.475 35.972,125.814 35.972,125.814 C42.183,58.275 99.81,60.248 99.81,60.248 C130.855,9.604 193.804,23.509 193.804,23.509 C193.804,23.509 233.648,-18.228 301.05,23.509 C301.05,23.509 364,9.604 395.035,60.248 C395.035,60.248 452.671,58.275 458.882,125.814 C458.882,125.814 515.621,177.475 475.729,240.052 C475.729,240.052 487.261,273.821 436.714,311.576 C386.177,349.33 275.796,345.364 247.417,346.341 z" fill-opacity="0" stroke="#3C2C1E" stroke-width="10" stroke-linecap="round" stroke-linejoin="round" id="path859"/>
    <path d="M53.277,141.341 C53.277,141.341 164.938,175.521 238.277,259.682 M114.938,71.341 C114.938,71.341 275.777,135.521 327.438,242.182 M209.938,36.341 C209.938,36.341 359.117,98.021 418.277,213.841 M294.938,37.182 C294.938,37.182 128.277,52.182 44.117,161.341 M381.617,71.341 C381.617,71.341 216.617,96.341 66.617,231.341 M438.277,132.182 C438.277,132.182 334.117,130.521 170.777,253.021" fill-opacity="0" stroke="#D3BB87" stroke-width="10" stroke-linecap="round" stroke-linejoin="round" id="path861"/>
    <path d="M208.882,153.646 C208.882,181.087 186.656,203.294 159.234,203.294 C131.813,203.294 109.585,181.087 109.585,153.646 C109.585,126.244 131.813,103.998 159.234,103.998 C186.656,103.998 208.882,126.244 208.882,153.646" fill="#EC9A9A" id="path863"/>
    <path d="M150.855,123.764 C152.515,127.475 149.097,132.61 143.238,135.248 C137.359,137.864 131.265,136.985 129.595,133.294 C127.945,129.583 131.354,124.446 137.222,121.811 C143.091,119.192 149.195,120.071 150.855,123.764" fill="#FFFFFE" id="path865"/>
    <path d="M385.406,153.646 C385.406,181.087 363.179,203.294 335.757,203.294 C308.335,203.294 286.109,181.087 286.109,153.646 C286.109,126.244 308.335,103.998 335.757,103.998 C363.179,103.998 385.406,126.244 385.406,153.646" fill="#EC9A9A" id="path867"/>
    <path d="M327.378,123.764 C329.039,127.475 325.63,132.61 319.761,135.248 C313.902,137.864 307.789,136.985 306.128,133.294 C304.468,129.583 307.886,124.446 313.747,121.811 C319.625,119.192 325.729,120.071 327.378,123.764" fill="#FFFFFE" id="path869"/>
    <path d="M216.236,113.821 C216.236,127.357 209.234,138.333 200.601,138.333 C191.968,138.333 184.977,127.357 184.977,113.821 C184.977,100.268 191.968,89.291 200.601,89.291 C209.234,89.291 216.236,100.268 216.236,113.821" fill="#3C2C1E" id="path871"/>
    <path d="M303.277,113.821 C303.277,127.357 296.275,138.333 287.642,138.333 C279,138.333 272.007,127.357 272.007,113.821 C272.007,100.268 279,89.291 287.642,89.291 C296.275,89.291 303.277,100.268 303.277,113.821" fill="#3C2C1E" id="path873"/>
    <path d="M186.813,161.009 L296.529,159.798 C296.529,159.798 289.175,218.626 238.912,216.791 C188.648,214.955 186.813,161.009 186.813,161.009" fill="#E05659" id="path875"/>
    <path d="M186.813,161.009 L296.529,159.798 C296.529,159.798 289.175,218.626 238.912,216.791 C188.648,214.955 186.813,161.009 186.813,161.009 z" fill-opacity="0" stroke="#3C2C1E" stroke-width="10" stroke-linecap="round" stroke-linejoin="round" id="path877"/>
  </g>
</svg>
